<?xml version="1.0" standalone="no"?>
<!DOCTYPE svg PUBLIC "-//W3C//DTD SVG 20010904//EN"
 "http://www.w3.org/TR/2001/REC-SVG-20010904/DTD/svg10.dtd">
<svg version="1.0" xmlns="http://www.w3.org/2000/svg"
 width="1600.000000pt" height="1600.000000pt" viewBox="0 0 1600.000000 1600.000000"
 preserveAspectRatio="xMidYMid meet">
<metadata>
Created by potrace 1.14, written by Peter Selinger 2001-2017
</metadata>
<g transform="translate(0.000000,1600.000000) scale(0.100000,-0.100000)"
fill="#000000" stroke="none">
<path d="M3872 12714 c-547 -59 -1105 -236 -1557 -492 -126 -71 -351 -223
-453 -305 -378 -304 -660 -660 -882 -1112 -170 -346 -282 -684 -364 -1095 -53
-262 -53 -273 -24 -303 18 -18 40 -27 79 -31 283 -32 447 -46 466 -41 37 9 50
43 67 180 120 955 708 1800 1546 2224 375 190 726 282 1147 300 225 9 205 -22
219 333 7 155 8 292 4 304 -13 32 -50 54 -90 53 -19 -1 -90 -7 -158 -15z"/>
<path d="M3835 11688 c-771 -43 -1499 -483 -1927 -1165 -137 -217 -276 -556
-326 -793 -55 -257 -76 -568 -53 -795 48 -476 233 -934 528 -1312 65 -84 103
-109 146 -93 10 3 92 75 183 159 160 149 164 153 164 193 0 33 -9 53 -49 107
-187 253 -314 553 -373 881 -20 116 -17 479 6 605 116 639 511 1160 1087 1435
619 295 1362 216 1911 -201 42 -33 111 -90 152 -129 111 -103 106 -104 315 75
95 83 174 158 181 174 19 46 -7 86 -131 206 -479 463 -1117 692 -1814 653z"/>
<path d="M3735 10724 c-165 -30 -282 -71 -436 -150 -408 -210 -709 -627 -795
-1099 -25 -136 -25 -413 -1 -540 69 -354 221 -636 468 -869 161 -152 337 -256
548 -326 107 -36 265 -70 275 -59 2 2 9 120 15 261 15 328 21 312 -141 369
-128 44 -222 104 -329 209 -198 194 -288 427 -276 710 10 238 93 432 256 604
179 186 385 276 637 276 242 0 441 -81 615 -250 136 -133 217 -274 260 -457
42 -176 48 -179 383 -190 203 -7 249 -6 254 5 8 21 -17 237 -38 332 -70 316
-251 623 -488 826 -196 169 -407 276 -661 336 -117 27 -429 34 -546 12z"/>
<path d="M4347 8944 c-1 -1 -19 -4 -39 -7 -57 -7 -114 -55 -95 -80 1 -2 -3
-10 -9 -18 -7 -10 -10 -591 -9 -1954 1 -1782 2 -1943 18 -1978 28 -64 41 -66
389 -66 192 0 309 3 313 9 4 6 10 8 14 6 4 -3 21 8 36 24 16 17 25 30 21 30
-5 0 -3 6 3 13 8 10 10 541 8 1980 l-2 1967 -30 30 c-17 17 -44 33 -60 36 -25
5 -553 12 -558 8z"/>
<path d="M6317 8943 c-1 0 -18 -2 -37 -4 -44 -4 -88 -33 -102 -68 -8 -18 -12
-588 -13 -1971 -1 -1822 0 -1948 16 -1985 35 -80 -13 -76 796 -71 395 2 736 6
758 9 22 3 63 8 90 11 28 3 64 8 80 11 17 4 46 8 65 11 52 7 75 11 75 14 0 1
10 4 23 6 12 2 32 6 45 8 12 2 22 4 22 5 0 3 17 7 60 16 16 3 36 12 44 18 8 7
16 11 18 9 6 -6 63 9 91 24 15 8 31 14 36 14 4 0 56 23 115 52 185 90 340 205
458 340 56 64 133 173 133 187 0 5 7 14 15 21 8 7 13 16 10 20 -3 5 -1 11 4
15 11 6 78 143 96 195 1 3 7 18 13 33 7 16 12 34 12 42 0 8 5 17 10 20 6 4 9
12 8 18 -1 7 4 29 11 50 7 21 14 46 16 55 2 9 4 17 6 17 1 0 3 9 5 20 1 11 5
30 8 43 15 56 27 116 31 152 2 14 6 39 9 55 42 221 52 710 21 1000 -12 110
-27 214 -41 280 -11 53 -11 55 -14 58 -1 1 -3 11 -5 22 -5 26 -13 59 -15 63
-3 2 -3 2 -14 52 -5 19 -11 40 -15 45 -3 6 -6 13 -7 18 -1 4 -3 9 -4 12 -1 3
-4 10 -5 15 -1 6 -4 12 -5 15 -1 3 -3 8 -5 13 -8 29 -42 107 -84 192 -89 179
-260 374 -429 488 -51 34 -94 62 -97 62 -2 0 -28 14 -57 31 -29 17 -57 32 -63
34 -5 1 -23 8 -40 15 -16 7 -32 14 -35 15 -3 1 -18 7 -35 14 -38 15 -53 20
-63 22 -4 0 -13 5 -19 11 -7 6 -13 7 -13 3 0 -4 -7 -2 -15 5 -8 7 -15 10 -15
6 0 -3 -12 -1 -27 5 -28 11 -38 14 -103 29 -19 5 -46 11 -60 14 -33 8 -79 17
-110 22 -14 2 -38 6 -55 9 -165 30 -356 37 -1023 39 -316 0 -574 0 -575 -1z
m1327 -747 c27 -4 65 -10 84 -16 19 -5 39 -7 44 -4 4 3 14 2 21 -3 6 -4 17 -8
22 -10 6 -1 21 -4 35 -7 62 -14 191 -64 255 -100 154 -85 283 -227 336 -366
11 -30 25 -60 31 -67 6 -7 8 -13 4 -13 -4 0 0 -13 9 -30 9 -16 13 -30 11 -30
-3 0 -1 -11 4 -25 5 -14 12 -38 15 -53 3 -15 8 -40 11 -57 15 -78 22 -121 30
-195 8 -74 9 -510 1 -585 -14 -129 -17 -156 -23 -187 -3 -18 -8 -42 -10 -53
-3 -19 -6 -32 -19 -85 -3 -11 -7 -29 -10 -40 -3 -11 -7 -29 -9 -40 -3 -11 -8
-25 -11 -30 -3 -5 -8 -18 -10 -27 -5 -30 -68 -154 -107 -214 -39 -60 -137
-155 -202 -197 -58 -37 -186 -103 -186 -95 0 3 -7 0 -15 -7 -8 -7 -15 -10 -15
-6 0 4 -13 0 -30 -9 -16 -9 -30 -13 -30 -9 0 4 -6 1 -13 -5 -8 -6 -17 -8 -20
-4 -4 3 -13 1 -20 -5 -8 -7 -17 -9 -20 -6 -3 3 -12 2 -19 -2 -7 -5 -22 -9 -33
-10 -11 -1 -36 -5 -55 -9 -70 -14 -140 -17 -430 -18 l-295 -2 -3 1319 -2 1318
312 -5 c172 -3 335 -8 362 -11z"/>
<path d="M10375 8720 c-17 -8 -39 -33 -50 -55 -20 -40 -20 -56 -20 -1980 1
-1863 2 -1942 19 -1978 17 -35 41 -56 76 -65 8 -2 142 -5 297 -6 313 -2 328 1
368 60 l21 31 0 1320 -1 1320 33 -48 c17 -26 32 -50 32 -53 0 -6 45 -75 60
-93 6 -7 8 -13 5 -13 -4 0 2 -12 13 -27 11 -16 30 -47 43 -69 13 -23 78 -132
144 -243 66 -111 125 -209 130 -219 6 -9 31 -52 58 -95 26 -43 47 -80 47 -83
0 -2 12 -23 27 -47 42 -64 46 -72 67 -108 10 -19 24 -37 30 -41 6 -4 7 -8 3
-8 -4 0 5 -19 21 -42 16 -24 32 -50 35 -58 4 -8 15 -27 25 -42 9 -15 46 -77
82 -138 36 -62 75 -128 88 -149 12 -20 31 -52 41 -71 19 -34 73 -93 85 -91 3
1 7 1 9 0 1 -1 20 -2 42 -4 72 -4 115 32 184 155 23 41 51 89 61 105 11 17 29
48 41 70 12 22 35 59 50 82 16 23 29 44 29 48 0 4 13 25 28 48 15 23 33 53 40
67 7 14 22 41 35 61 12 20 62 103 111 185 48 82 97 161 107 176 10 15 19 30
19 33 0 3 23 42 50 86 28 44 50 83 50 86 0 3 13 24 28 47 15 22 31 48 35 56 4
8 16 29 27 45 11 17 23 37 27 45 6 13 46 80 80 135 7 11 22 36 33 55 11 19 31
53 45 75 14 22 29 49 34 60 7 14 10 16 12 5 0 -8 2 -600 3 -1315 2 -1447 -4
-1342 72 -1380 38 -20 56 -21 325 -20 170 1 294 6 309 12 32 14 55 40 67 78 5
18 9 779 8 1980 -1 1586 -3 1954 -14 1970 -7 11 -25 29 -39 40 -25 18 -43 19
-322 19 -162 0 -308 -3 -323 -5 -34 -6 -97 -54 -97 -74 0 -8 -4 -15 -9 -15 -5
0 -11 -8 -15 -17 -3 -10 -15 -33 -26 -50 -41 -68 -60 -99 -81 -138 -12 -22
-29 -51 -39 -65 -9 -14 -40 -63 -68 -110 -27 -47 -59 -101 -71 -120 -11 -19
-25 -44 -31 -55 -6 -11 -19 -33 -30 -50 -11 -16 -24 -39 -29 -50 -5 -11 -24
-40 -40 -65 -17 -25 -31 -49 -31 -53 0 -5 -13 -28 -30 -52 -16 -24 -30 -46
-30 -49 0 -2 -23 -41 -51 -86 -28 -45 -60 -99 -72 -119 -33 -58 -81 -141 -92
-161 -6 -10 -17 -25 -24 -34 -7 -9 -10 -16 -5 -16 5 0 4 -4 -1 -8 -12 -9 -62
-85 -76 -115 -5 -12 -17 -34 -27 -49 -31 -49 -116 -193 -117 -198 0 -3 -9 -19
-20 -35 -32 -48 -45 -69 -52 -85 -3 -8 -14 -25 -23 -37 -16 -21 -18 -21 -32
-5 -9 9 -33 48 -54 85 -21 38 -47 81 -56 95 -10 15 -25 41 -34 57 -14 25 -54
93 -131 220 -7 11 -15 27 -19 35 -4 8 -22 39 -41 68 -18 29 -33 55 -33 58 0 3
-13 24 -28 47 -16 23 -32 49 -35 57 -4 8 -16 29 -27 45 -11 17 -23 37 -27 45
-3 8 -14 26 -23 40 -10 14 -31 50 -48 80 -17 30 -55 96 -86 145 -31 50 -60 99
-66 110 -5 11 -21 38 -35 60 -13 22 -32 54 -41 70 -9 17 -20 32 -23 35 -3 3
-14 21 -25 40 -43 80 -69 126 -81 140 -7 8 -14 20 -16 26 -2 5 -42 75 -89 153
-81 137 -124 188 -167 196 -10 2 -18 4 -18 5 0 2 -133 3 -295 4 -245 1 -299
-1 -325 -14z"/>
<path d="M12324 4256 c-2 -6 -3 -191 -2 -411 l3 -399 48 -1 c26 -1 48 1 48 4
1 4 2 185 3 404 1 262 -2 401 -9 405 -18 11 -87 10 -91 -2z"/>
<path d="M11365 4191 c-3 -2 -5 -37 -5 -76 l0 -72 -35 2 c-19 2 -36 0 -36 -4
-4 -19 -5 -68 -2 -77 2 -7 20 -11 39 -9 l34 2 1 -209 c1 -114 3 -212 4 -218 1
-5 4 -13 5 -17 1 -5 2 -11 1 -15 -1 -11 62 -55 79 -56 8 -1 24 -3 35 -5 23 -5
77 12 87 26 5 9 5 24 -1 80 -1 4 -9 4 -18 -1 -31 -15 -79 0 -85 26 -3 14 -3
346 1 378 1 6 23 10 54 10 l52 -1 0 45 -1 45 -42 1 c-23 1 -48 2 -55 3 -10 1
-13 20 -12 71 1 39 -1 71 -4 71 -18 4 -92 4 -96 0z"/>
<path d="M11888 4054 c-2 -1 -15 -5 -28 -7 -41 -8 -63 -19 -103 -50 -35 -27
-86 -94 -92 -121 -1 -6 -6 -20 -11 -31 -9 -23 -10 -146 -1 -189 14 -64 83
-166 114 -166 7 0 13 -4 13 -9 0 -5 10 -12 23 -16 32 -11 37 -12 40 -15 20
-16 184 -16 205 1 1 1 5 2 10 4 29 8 52 22 84 53 l37 35 -27 28 c-26 28 -26
28 -47 9 -48 -45 -173 -68 -223 -41 -12 6 -22 9 -22 6 0 -4 -18 8 -40 25 -38
30 -81 103 -73 125 2 7 83 10 226 10 122 -1 227 0 233 2 10 4 11 105 1 143
-30 119 -129 199 -253 205 -35 1 -64 1 -66 -1z m101 -99 c54 -10 123 -87 129
-145 l3 -25 -185 1 c-102 0 -188 3 -191 6 -10 9 33 93 63 121 30 29 104 56
137 50 11 -2 31 -5 44 -8z"/>
<path d="M12744 4049 c-3 -5 -10 -7 -15 -4 -5 4 -15 3 -21 -2 -7 -4 -15 -8
-18 -8 -45 -5 -143 -110 -154 -165 -1 -3 -5 -11 -10 -19 -5 -8 -10 -48 -11
-90 -4 -164 82 -286 225 -318 31 -7 127 -7 156 0 39 10 99 45 127 74 l27 29
-30 29 c-25 24 -30 26 -36 12 -3 -10 -12 -17 -20 -17 -8 0 -14 -5 -14 -12 0
-6 -3 -8 -6 -5 -4 3 -16 1 -28 -5 -11 -7 -28 -14 -36 -15 -32 -8 -112 -3 -140
7 -3 1 -8 2 -12 1 -4 0 -26 18 -50 42 -44 43 -78 116 -55 118 7 1 113 2 237 3
l225 1 -1 65 c-2 78 -6 94 -34 145 -38 70 -97 116 -164 131 -42 10 -136 11
-142 3z m114 -93 c31 -7 77 -41 101 -75 25 -35 37 -81 23 -90 -6 -3 -91 -6
-189 -6 -197 1 -195 0 -160 65 29 53 47 71 100 95 45 21 71 23 125 11z"/>
<path d="M13407 4054 c-2 -2 -14 -6 -28 -8 -13 -2 -24 -5 -24 -6 0 -1 -8 -3
-17 -5 -37 -7 -169 -125 -141 -125 4 0 3 -4 -3 -8 -22 -14 -41 -96 -38 -162 2
-56 9 -105 14 -105 1 0 3 -8 5 -17 5 -26 59 -92 105 -128 22 -18 40 -29 40
-25 0 4 6 2 14 -4 8 -7 25 -14 37 -18 28 -6 137 -7 159 0 66 19 119 54 156
103 26 34 26 35 8 49 -53 39 -61 40 -88 8 -48 -57 -130 -81 -206 -60 -142 38
-191 237 -86 350 50 53 106 68 214 55 8 -1 36 -21 62 -45 l49 -44 35 24 35 23
-18 30 c-32 52 -91 95 -156 111 -25 6 -123 11 -128 7z"/>
<path d="M13996 4048 c-9 -5 -16 -6 -16 -2 0 3 -7 1 -15 -6 -8 -7 -15 -10 -15
-6 0 14 -97 -56 -120 -86 -30 -39 -51 -78 -43 -78 3 0 0 -6 -7 -14 -18 -22
-19 -153 -2 -216 13 -44 28 -66 80 -118 35 -35 66 -61 69 -58 4 3 12 1 19 -4
18 -16 53 -22 119 -22 73 0 98 5 152 33 97 50 158 164 154 289 -1 33 -7 72
-11 78 -2 1 -3 5 -4 10 -1 4 -5 13 -9 20 -5 6 -5 12 -2 12 3 0 -8 20 -25 45
-37 54 -82 89 -141 111 -49 18 -159 25 -183 12z m144 -102 c35 -8 106 -88 117
-133 8 -35 9 -95 1 -133 -8 -36 -49 -91 -88 -116 -31 -21 -54 -28 -96 -29 -31
0 -57 3 -60 7 -3 4 -14 8 -24 8 -18 0 -115 88 -106 97 2 3 -1 21 -8 41 -33 99
26 224 124 260 25 9 97 8 140 -2z"/>
<path d="M14685 4052 c-3 -3 -13 -7 -23 -8 -9 -2 -18 -8 -20 -13 -2 -6 -10
-11 -17 -11 -8 0 -23 -12 -34 -26 l-20 -26 3 30 c6 41 -3 49 -54 48 l-45 -2 0
-299 0 -300 38 1 c20 1 43 2 50 3 10 1 12 44 12 194 -1 105 2 199 6 207 33 79
69 107 134 105 54 -2 92 -22 107 -57 7 -15 16 -28 19 -28 4 0 7 -93 8 -207 1
-119 6 -210 12 -213 7 -5 67 -6 89 -1 3 1 5 83 5 184 -1 211 7 248 59 293 31
27 43 31 85 29 72 -3 113 -38 127 -106 4 -19 7 -117 8 -219 l1 -185 40 0 c22
-1 45 1 50 2 11 3 12 387 2 443 -6 35 -28 80 -39 80 -5 0 -7 4 -3 9 7 12 -82
74 -94 66 -5 -3 -12 -2 -15 3 -4 7 -106 9 -113 2 -2 -1 -7 -4 -13 -5 -5 -1
-13 -4 -17 -5 -5 -1 -11 -2 -15 -1 -4 0 -27 -19 -52 -44 -45 -43 -46 -44 -57
-22 -14 27 -45 54 -79 68 -28 12 -136 20 -145 11z"/>
</g>
</svg>
